<?xml version="1.0" standalone="no"?>
<!DOCTYPE svg PUBLIC "-//W3C//DTD SVG 20010904//EN"
 "http://www.w3.org/TR/2001/REC-SVG-20010904/DTD/svg10.dtd">
<svg version="1.0" xmlns="http://www.w3.org/2000/svg"
 width="284.000000pt" height="177.000000pt" viewBox="0 0 284.000000 177.000000"
 preserveAspectRatio="xMidYMid meet">

<g transform="translate(0.000000,177.000000) scale(0.100000,-0.100000)"
fill="#000000" stroke="none">
<path d="M1533 1373 c-17 -16 -68 -70 -112 -122 -77 -90 -79 -94 -65 -116 14
-22 14 -24 -6 -30 -16 -5 -34 5 -76 42 -106 93 -100 90 -133 70 -24 -14 -30
-15 -33 -4 -2 11 -36 3 -145 -32 -78 -25 -144 -49 -148 -52 -3 -4 -3 -36 1
-73 6 -57 9 -66 24 -61 10 3 20 0 23 -9 4 -10 -7 -15 -42 -20 -26 -3 -64 -15
-84 -25 l-37 -19 0 49 c0 67 -19 108 -71 152 -102 88 -279 89 -462 3 -76 -35
-157 -90 -157 -106 0 -5 27 -54 60 -109 57 -94 62 -100 85 -91 22 9 26 5 45
-38 12 -26 57 -129 102 -230 47 -106 85 -181 92 -179 6 2 50 16 97 31 48 14
96 34 108 43 l21 18 -19 70 c-11 38 -18 71 -17 73 2 1 11 -9 20 -23 49 -75
203 -86 277 -19 15 14 17 12 23 -22 7 -34 9 -36 39 -30 18 3 57 8 87 12 30 4
66 12 79 19 22 11 25 18 22 69 -1 35 2 56 8 56 6 0 83 -36 171 -80 142 -71
162 -79 184 -68 23 10 25 17 28 90 l3 80 35 13 c19 7 42 15 51 19 14 6 16 1
12 -36 l-5 -43 100 -15 c68 -11 107 -12 122 -6 21 10 32 2 43 -29 2 -6 10 -5
19 2 18 15 28 7 28 -23 0 -27 0 -27 128 -49 123 -22 151 -15 144 34 -3 22 0
31 9 31 8 0 24 3 37 6 20 6 22 3 22 -34 l0 -40 64 -7 c76 -8 83 -12 88 -49 3
-25 10 -30 78 -52 121 -38 108 -55 228 304 56 169 102 312 102 318 0 14 -213
65 -225 53 -13 -13 -25 -11 -25 4 0 19 -256 74 -279 60 -11 -7 -17 -28 -19
-76 l-3 -65 -37 -7 c-20 -4 -49 -14 -65 -22 -38 -19 -41 -14 -56 95 -21 145
-10 132 -110 132 -61 0 -93 -4 -107 -15 -12 -9 -44 -14 -92 -15 -86 0 -108 -9
-117 -49 l-6 -29 -42 23 c-23 13 -59 27 -80 31 l-39 7 74 39 c40 22 74 41 75
42 4 4 -100 156 -106 156 -4 0 -21 -12 -38 -27z m65 -76 c12 -18 22 -36 22
-40 0 -12 -142 -78 -157 -73 -11 4 0 24 43 76 32 38 60 70 63 70 4 0 16 -15
29 -33z m485 -247 c13 -81 15 -119 8 -130 -20 -29 -39 -77 -46 -118 -9 -54 20
-120 69 -157 52 -40 48 -58 -11 -50 -91 12 -82 0 -104 155 l-12 85 -21 -57
c-12 -32 -24 -58 -27 -58 -4 0 -21 33 -39 73 -19 39 -35 65 -36 57 -2 -8 -8
-48 -14 -88 l-12 -73 -57 7 c-31 3 -59 8 -62 10 -13 8 15 108 38 132 22 24 22
26 6 44 -15 16 -15 27 -4 101 7 45 17 99 22 120 l10 37 58 0 c66 0 66 -1 77
-80 4 -27 10 -50 14 -50 4 0 13 36 20 80 l13 81 46 -3 46 -3 18 -115z m-1011
33 l3 -78 55 77 c30 43 57 78 60 78 3 0 30 -25 60 -55 l54 -55 -79 -80 c-43
-44 -77 -81 -74 -83 2 -3 32 -15 66 -27 43 -16 77 -37 111 -71 34 -34 63 -52
95 -61 l47 -12 0 -53 0 -53 -190 95 -190 95 0 -99 c0 -108 -1 -111 -72 -111
-26 0 -28 3 -28 43 0 23 7 62 16 87 20 57 12 122 -21 172 -17 26 -25 51 -25
82 0 75 -10 107 -31 101 -15 -5 -19 -1 -19 18 0 21 9 27 68 45 37 11 72 21 79
21 8 1 13 -24 15 -76z m-511 29 c39 -20 59 -38 77 -72 41 -78 16 -158 -79
-251 l-58 -56 29 -114 c16 -63 30 -117 30 -121 0 -7 -99 -42 -104 -37 -3 4
-109 239 -172 382 -28 63 -43 87 -54 84 -8 -3 -21 -6 -29 -8 -9 -3 -29 21 -53
61 l-38 65 65 33 c89 44 155 61 251 61 71 1 89 -3 135 -27z m1047 -16 c15 -8
35 -23 44 -33 20 -22 24 -17 -81 -127 l-56 -59 35 7 c19 3 44 16 56 27 l23 21
40 -33 c23 -18 40 -37 38 -43 -7 -23 -100 -75 -153 -86 -95 -20 -172 8 -215
76 -17 28 -21 46 -17 94 5 70 36 117 100 149 51 25 145 28 186 7z m867 -9 l59
-13 17 -70 c9 -38 22 -96 29 -129 l13 -60 10 40 c5 22 18 74 29 116 l20 77 61
-14 c33 -8 62 -16 64 -17 5 -6 -176 -542 -184 -542 -4 0 -24 4 -44 8 -45 9
-46 15 -48 181 -1 66 -3 122 -5 123 -1 2 -10 -45 -20 -104 -9 -59 -18 -108
-19 -109 -1 -1 -23 0 -49 3 -47 5 -48 6 -48 40 0 24 11 48 34 79 62 81 68 180
15 248 -17 21 -19 34 -14 66 5 32 4 40 -9 40 -20 0 -26 12 -19 38 4 16 11 21
27 17 11 -3 48 -11 81 -18z m-125 -139 c28 -17 60 -79 60 -115 0 -42 -40 -113
-82 -146 -27 -22 -52 -31 -89 -35 -69 -6 -111 16 -140 74 -41 86 -1 171 108
230 32 17 108 13 143 -8z m-1077 -35 c6 -32 6 -32 -24 -21 l-30 10 22 24 c26
28 24 28 32 -13z m-347 -14 c41 -38 57 -77 51 -126 -6 -55 -45 -115 -98 -150
-105 -69 -240 -4 -239 114 1 65 60 149 125 179 46 22 129 13 161 -17z"/>
<path d="M433 984 c-8 -4 -4 -29 14 -87 14 -45 27 -86 30 -90 3 -5 23 8 44 29
33 32 39 44 39 80 0 33 -5 47 -22 58 -21 15 -79 20 -105 10z m82 -78 c0 -52
-19 -56 -33 -8 -15 51 -16 49 11 48 19 -1 22 -7 22 -40z"/>
<path d="M1440 1012 c-35 -35 -40 -78 -12 -112 l18 -22 59 66 c63 72 63 83 2
93 -31 5 -40 1 -67 -25z m62 -29 c-11 -16 -29 -37 -41 -47 -21 -19 -21 -19
-21 11 0 34 13 49 50 56 14 2 26 5 28 6 2 0 -5 -11 -16 -26z"/>
<path d="M2195 905 c-28 -27 -30 -42 -14 -78 18 -40 78 -59 118 -37 20 10 47
67 38 77 -3 3 -13 -2 -22 -11 -23 -23 -61 -20 -79 6 -14 20 -14 24 -1 45 14
21 14 23 0 23 -9 0 -27 -11 -40 -25z"/>
<path d="M783 878 c-44 -21 -47 -93 -5 -124 47 -36 132 4 132 61 l0 25 -20
-20 c-22 -22 -60 -26 -78 -8 -15 15 -15 51 0 66 15 15 1 15 -29 0z"/>
</g>
</svg>
